<svg width="240" height="240" fill="none" xmlns="http://www.w3.org/2000/svg"><path fill-rule="evenodd" clip-rule="evenodd" d="M240 120C240 53.7 186.3 0 120 0S0 53.7 0 120s53.7 120 120 120 120-53.7 120-120zM61.8 99.3H61v13.5H49v-25h14.6c.1 12.6 9.6 18.4 18 18.4 6.7 0 12.6-3.7 12.6-10.8 0-8.2-5.6-11.7-18.2-15.2-13.4-3.3-26.2-7.9-26.2-23.5 0-13.6 11.6-20.5 23.4-20.5 9.8 0 18.5 4.9 20.1 14.1h.6c0-4.3-.1-8.6-.2-12.9h12.1v24.5H91.5c-.3-11.5-7.7-17.1-15.7-17.1-6 0-11.1 3.9-11.1 9.3 0 6.6 3.6 9.6 17.6 13.4 17.5 4.7 27.2 11.1 27.2 24.6 0 15.1-13.2 21.8-25.3 21.8-10.4 0-20.3-4.5-22.4-14.6zm107.8 8.3c-7.1 4.4-15.9 6.9-23.5 6.9-13.9 0-24.1-7-24.1-19.4 0-11 7.3-17.4 16.8-22.8-2.8-5.8-4.5-11.8-4.5-17.1 0-12.4 11.9-19.2 23.5-19.2 8.5 0 16.4 4.1 16.4 12.9 0 9.804-8.817 14.92-18.097 20.307-1.132.657-2.272 1.319-3.403 1.993 5.5 9.4 13.6 18.8 21.7 25.2 5.3-5.2 8.5-12.2 8.8-19.8h-11.7V66h30.7v10.6h-9.5c-2.1 9.9-6.9 17.6-13.1 23.6 3.5 2.3 7 3.8 9.6 3.8 3.7 0 7.3-2.1 7.3-6.7v-6.7h5.7v9.1c0 10.7-7.7 14.6-15.2 14.6-4.8 0-11-2.3-17.4-6.7zm-5.1-57.7c0-5-3.5-7.7-7.7-7.7-4.9 0-10 3.8-10.1 11.9 0 3.5 1.3 7.7 3.5 12.1 8.3-4.8 14.3-9.3 14.3-16.3zm.1 53.9c-8.1-6.1-16.2-15.4-22.2-25.2-3.8 3.7-6.4 8.2-6.3 14.3 0 10.9 6.1 15.1 14.2 15.1 4.6 0 9.7-1.5 14.3-4.2zM56.1 165.3c0 17.5 12 27.9 26.3 27.9 8.4 0 16.2-4.3 20.7-12l9.1 8.1c-5 9.9-16 16.5-29.5 16.5-26.4 0-41.4-15.6-41.4-38.4 0-26.6 18.6-39.8 34.9-39.8 11.6 0 20 5.1 22.9 14.3h.8l-.3-13.4h11.8v26.4H98.6c-.5-10.4-9.3-16.3-19.9-16.3-11.2 0-22.6 9.1-22.6 26.7zm68.2 1.5c0-22.2 16.5-39.2 39.2-39.2 23.1 0 39.3 16.6 39.3 39.2s-16.6 39-39.3 39c-22.9 0-39.2-16.5-39.2-39zm16.7 0c0 20 7.2 28.6 22.5 28.6 16.1 0 22.5-6.9 22.5-28.6 0-19.8-6.2-28.3-22.5-28.3-15.7 0-22.5 6.6-22.5 28.3z" fill="#FF8949"/></svg>