<?xml version="1.0" encoding="utf-8"?>
<!-- Generator: Adobe Illustrator 18.1.0, SVG Export Plug-In . SVG Version: 6.00 Build 0)  -->
<!DOCTYPE svg PUBLIC "-//W3C//DTD SVG 1.1//EN" "http://www.w3.org/Graphics/SVG/1.1/DTD/svg11.dtd">
<svg version="1.1" id="Layer_1" xmlns="http://www.w3.org/2000/svg" xmlns:xlink="http://www.w3.org/1999/xlink" x="0px" y="0px"
	 viewBox="0 0 568 54" enable-background="new 0 0 568 54" xml:space="preserve">
<g>
	<path fill="#333333" d="M18.729,53.629c-8.137,0-13.321-2.16-19.153-6.336l4.968-10.585c3.168,2.448,7.777,5.544,11.953,5.544
		c3.312,0,6.336-1.8,6.336-5.4c0-3.816-2.52-4.752-9.721-6.552C5.697,28.427,0.656,24.971,0.656,16.546
		c0-10.801,7.632-16.345,18.001-16.345c6.913,0,10.801,1.728,16.489,5.184L30.25,15.538c-2.88-2.16-6.408-4.392-10.153-4.392
		c-2.52,0-5.328,1.296-5.328,4.176c0,3.096,3.384,3.96,7.488,5.041c6.409,1.656,14.689,3.744,14.689,15.553
		C36.947,45.78,29.458,53.629,18.729,53.629z"/>
	<path fill="#333333" d="M70.786,53.629c-16.202,0-27.363-10.872-27.363-26.642S55.161,0.201,71.866,0.201
		c16.201,0,27.578,10.801,27.578,26.066C99.444,42.469,87.708,53.629,70.786,53.629z M71.722,12.226
		c-8.065,0-13.465,5.977-13.465,14.833c0,8.857,5.185,14.689,13.105,14.689c8.065,0,13.25-5.832,13.25-14.905
		C84.611,17.986,79.571,12.226,71.722,12.226z"/>
	<path fill="#333333" d="M129.35,52.333h-20.233V1.497h15.049c11.737,0,18.001,1.224,23.258,6.48
		c4.537,4.537,6.913,11.665,6.913,18.65C154.336,38.22,148.144,52.333,129.35,52.333z M136.046,16.546
		c-2.664-2.736-6.984-3.168-11.161-3.168h-1.224v27.074h3.816c8.137,0,11.953-6.553,11.953-14.041
		C139.431,22.811,138.495,19.066,136.046,16.546z"/>
	<path fill="#333333" d="M195.101,52.333l-3.096-8.929h-17.282l-2.88,8.929h-14.762l18.578-50.836h15.337l18.578,50.836H195.101z
		 M183.364,15.106c-1.584,5.833-3.312,11.593-5.041,17.425h10.081C186.676,26.699,184.948,20.939,183.364,15.106z"/>
	<path fill="#333333" d="M239.069,35.412h-8.641v16.921h-13.609V1.497h19.226c5.257,0,11.377,0.432,15.481,4.393
		c3.024,3.024,4.393,7.849,4.393,12.601C255.918,28.571,250.23,35.412,239.069,35.412z M234.605,12.874h-4.177v10.729h4.681
		c3.384,0,6.624-1.512,6.624-5.4C241.733,14.026,238.061,12.874,234.605,12.874z"/>
	<path fill="#333333" d="M289.245,53.629c-16.201,0-27.362-10.872-27.362-26.642S273.62,0.201,290.325,0.201
		c16.201,0,27.578,10.801,27.578,26.066C317.903,42.469,306.166,53.629,289.245,53.629z M290.181,12.226
		c-8.064,0-13.464,5.977-13.464,14.833c0,8.857,5.185,14.689,13.105,14.689c8.064,0,13.249-5.832,13.249-14.905
		C303.07,17.986,298.029,12.226,290.181,12.226z"/>
	<path fill="#333333" d="M350.019,35.412h-8.641v16.921h-13.609V1.497h19.226c5.257,0,11.377,0.432,15.481,4.393
		c3.024,3.024,4.393,7.849,4.393,12.601C366.868,28.571,361.18,35.412,350.019,35.412z M345.555,12.874h-4.177v10.729h4.681
		c3.384,0,6.624-1.512,6.624-5.4C352.683,14.026,349.011,12.874,345.555,12.874z"/>
	<path fill="#333333" d="M430.155,52.333l-4.969-5.977c-5.185,4.896-9.433,6.625-14.329,6.625c-8.785,0-15.914-6.625-15.914-14.833
		c0-6.337,3.528-9.793,11.665-15.193c-3.96-4.537-5.04-6.985-5.04-10.513c0-6.192,5.257-10.945,12.241-10.945
		s12.385,4.681,12.385,10.729c0,4.608-2.521,7.417-8.713,11.737l8.785,10.945l5.761-5.833l5.04,5.473l-6.049,6.12l9.289,11.665
		C440.307,52.333,430.155,52.333,430.155,52.333z M410.713,28.715c-5.04,3.169-7.272,5.761-7.272,8.857
		c0,4.248,3.744,8.137,7.993,8.137c2.231,0,3.672-0.433,8.784-5.041L410.713,28.715z M413.882,8.338
		c-2.377,0-4.104,1.584-4.104,3.744c0,1.8,0.792,3.24,3.456,6.48c3.672-2.952,5.04-4.32,5.04-6.552
		C418.273,9.85,416.474,8.338,413.882,8.338z"/>
	<path fill="#333333" d="M497.185,8.41c-10.656,0-18.434,7.777-18.434,18.362c0,10.584,7.705,18.361,18.074,18.361
		c4.608,0,8.929-1.513,13.321-4.608v9.145c-3.961,2.448-7.849,3.312-13.394,3.312c-15.554,0-26.931-11.018-26.931-26.138
		c0-15.193,11.665-26.21,27.723-26.21c4.681,0,8.785,0.648,12.817,3.241v9.577C505.826,9.778,501.938,8.41,497.185,8.41z"/>
	<path fill="#333333" d="M533.789,53.125c-9.289,0-16.489-7.345-16.489-16.777c0-9.289,7.272-16.345,16.777-16.345
		c9.36,0,16.489,7.056,16.489,16.345C550.566,45.709,543.149,53.125,533.789,53.125z M533.933,27.491
		c-4.752,0-8.497,3.96-8.497,9.072c0,5.041,3.745,9.073,8.497,9.073c5.041,0,8.569-4.177,8.569-9.073
		C542.502,31.523,539.117,27.491,533.933,27.491z"/>
	<path fill="#333333" d="M563.062,52.981c-2.736,0-4.969-2.305-4.969-4.969c0-2.736,2.232-4.896,5.041-4.896
		c2.664,0,4.896,2.232,4.896,4.896C568.03,50.749,565.799,52.981,563.062,52.981z"/>
</g>
</svg>
