<?xml version="1.0" encoding="utf-8"?>
<!-- Generator: Adobe Illustrator 18.0.0, SVG Export Plug-In . SVG Version: 6.00 Build 0)  -->
<!DOCTYPE svg PUBLIC "-//W3C//DTD SVG 1.1//EN" "http://www.w3.org/Graphics/SVG/1.1/DTD/svg11.dtd">
<svg version="1.1" id="Layer_1" xmlns="http://www.w3.org/2000/svg" xmlns:xlink="http://www.w3.org/1999/xlink" x="0px" y="0px"
	 viewBox="0 0 612 171.154" enable-background="new 0 0 612 171.154" xml:space="preserve">
<g>
	<path d="M58.698,0.163c3.786-0.638,7.84,0.659,10.499,3.438c3.894,3.92,4.428,10.625,1.149,15.083
		c-3.162,4.662-9.831,6.349-14.853,3.829c-4.649-2.129-7.468-7.554-6.553-12.584C49.643,5.015,53.793,0.883,58.698,0.163
		L58.698,0.163z"/>
	<path d="M119.438,0.236c3.885-0.789,8.152,0.421,10.906,3.309c4.376,4.267,4.506,11.977,0.221,16.353
		c-3.916,4.393-11.184,5.031-15.824,1.418c-4.718-3.343-6.132-10.338-3.209-15.304C113.158,3.055,116.142,0.926,119.438,0.236
		L119.438,0.236z"/>
	<path d="M536.604,25.306c9.398-3.192,19.62-3.248,29.315-1.54c10.872,1.934,21.15,7.455,28.38,15.855
		c2.15,2.576,4.701,5.286,4.857,8.838c0.277,5.143-4.067,9.636-8.89,10.725c-2.988,0.685-6.458,0.156-8.682-2.082
		c-2.087-2.09-4.09-4.28-6.41-6.11c-2.823-2.15-5.984-3.85-9.319-5.052c-4.406-1.609-9.15-1.986-13.804-1.878
		c-6.947,0.161-13.829,2.875-18.891,7.659c-5.919,5.49-9.54,13.057-11.361,20.833c-2.477,10.928-2.1,22.685,2.121,33.145
		c3.581,8.895,10.139,16.987,19.133,20.764c9.064,3.834,20.083,2.303,27.976-3.499c6.605-4.87,10.568-12.595,12.048-20.548
		c-5.001-0.078-10.001-0.004-14.996-0.035c-3.686-0.048-7.264-2.186-9.009-5.433c-1.729-3.022-1.829-6.896-0.256-10.001
		c1.679-3.486,5.403-5.859,9.273-5.915c7.663-0.026,15.33,0,22.997-0.009c2.593-0.004,5.321-0.221,7.745,0.915
		c3.959,1.57,6.735,5.659,6.666,9.932c-0.026,8.383-1.244,16.825-4.206,24.688c-2.828,7.559-7.295,14.545-13.215,20.052
		c-12.294,11.601-30.694,16.002-46.983,11.748c-13.045-3.417-24.219-12.39-31.397-23.678c-9.441-14.58-12.451-32.677-10.101-49.737
		c1.887-14.263,7.846-28.339,18.37-38.37C523.26,31.521,529.652,27.614,536.604,25.306L536.604,25.306z"/>
	<path d="M465.926,29.556c1.92-3.669,6.115-5.985,10.252-5.594c4.016,0.225,7.728,2.953,9.181,6.7
		c0.936,2.212,0.763,4.658,0.763,7.004c0,31.658,0,63.314,0,94.972c-0.043,2.972,0.343,6.138-1.114,8.864
		c-1.063,2.299-3.113,3.882-5.195,5.209c-3.204,2.324-7.706,2.589-11.193,0.746c-1.751-0.902-3.157-2.334-4.272-3.934
		c-19.878-25.765-39.754-51.532-59.65-77.283c0.018,23.439,0.005,46.883,0.009,70.323c0.065,3.403-1.595,6.77-4.337,8.785
		c-3.161,2.407-7.693,2.767-11.223,0.976c-3.496-1.717-5.897-5.464-5.906-9.375c-0.019-34.108-0.005-68.22-0.009-102.332
		c-0.113-5.187,4.09-10.014,9.245-10.586c4.177-0.633,8.591,1.448,10.699,5.122c20.495,26.523,40.955,53.076,61.472,79.585
		c0.004-24.414,0.012-48.834-0.005-73.249C464.589,33.446,464.924,31.36,465.926,29.556L465.926,29.556z"/>
	<path d="M219.744,34.188c0.048-4.909,3.994-9.372,8.833-10.1c4.389-0.833,9.103,1.405,11.249,5.316
		c20.487,26.405,40.786,52.963,61.329,79.322c0.008-24.85,0.004-49.698,0-74.547c0.056-3.578,2.15-7.021,5.251-8.782
		c3.24-1.934,7.516-1.951,10.781-0.06c3.153,1.739,5.304,5.234,5.344,8.842c-0.01,34.407,0,68.809-0.005,103.216
		c-0.088,3.764-2.516,7.125-5.717,8.964c-4.37,3.587-11.491,2.893-14.991-1.583c-20.265-26.149-40.4-52.408-60.687-78.541
		c-0.069,23.721-0.009,47.442-0.03,71.164c-0.083,2.892-1.513,5.686-3.721,7.532c-3.005,2.584-7.493,3.234-11.132,1.678
		c-3.83-1.547-6.539-5.503-6.509-9.645C219.744,102.706,219.739,68.447,219.744,34.188L219.744,34.188z"/>
	<path d="M349.278,24.92c6.272-2.003,13.496,3.075,13.578,9.68c0.005,34.415,0,68.831,0,103.247
		c-0.035,4.063-2.775,7.884-6.522,9.393c-2.168,0.885-4.623,1.055-6.891,0.469c-3.687-0.906-6.743-3.969-7.646-7.653
		c-0.472-1.722-0.282-3.518-0.308-5.274c-0.004-33.248,0.009-66.493-0.004-99.738C341.417,30.415,344.824,26.078,349.278,24.92
		L349.278,24.92z"/>
	<path d="M73.04,33.13c5.737-0.85,11.7,2.862,13.439,8.396c1.609,4.684,0.108,10.244-3.704,13.426
		c-4.254,3.747-11.071,3.99-15.582,0.564c-4.588-3.261-6.34-9.805-4.046-14.936C64.804,36.555,68.733,33.633,73.04,33.13
		L73.04,33.13z"/>
	<path d="M105.625,33.234c5.673-1.167,11.791,2.208,13.873,7.598c1.891,4.692,0.663,10.49-3.148,13.864
		c-4.454,4.202-11.999,4.328-16.579,0.261c-4.251-3.496-5.573-9.914-3.153-14.836C98.283,36.552,101.752,33.923,105.625,33.234
		L105.625,33.234z"/>
	<path d="M14.482,43.547c5.846-1.622,12.49,2.055,14.194,7.875c1.838,5.351-0.837,11.756-5.95,14.18
		c-4.354,2.225-10.031,1.418-13.552-1.986c-3.491-3.252-4.64-8.668-2.801-13.066C7.734,47.08,10.878,44.435,14.482,43.547
		L14.482,43.547z"/>
	<path d="M162.669,43.433c5.546-1.288,11.717,2.03,13.6,7.425c2.177,5.421-0.438,12.177-5.707,14.709
		c-3.973,2.051-9.102,1.609-12.637-1.145c-3.755-2.789-5.495-7.949-4.245-12.456C154.742,47.714,158.389,44.309,162.669,43.433
		L162.669,43.433z"/>
	<path d="M48.195,56.843c5.161-1.305,10.976,1.114,13.639,5.724c1.708,2.78,2.09,6.236,1.392,9.384
		c-1.058,4.51-4.865,8.249-9.415,9.172c-3.782,0.825-7.936-0.143-10.864-2.706c-3.829-3.2-5.321-8.795-3.668-13.496
		C40.602,60.931,44.092,57.766,48.195,56.843L48.195,56.843z"/>
	<path d="M128.088,56.96c5.001-1.457,10.786,0.616,13.665,4.97c2.103,2.996,2.632,6.93,1.696,10.442
		c-1.006,3.66-3.83,6.744-7.342,8.162c-4.177,1.683-9.233,0.928-12.685-1.991c-3.925-3.196-5.503-8.877-3.808-13.647
		C120.912,61.066,124.177,57.996,128.088,56.96L128.088,56.96z"/>
	<path d="M48.364,90.005c4.129-0.954,8.695,0.356,11.653,3.4c4.176,4.11,4.757,11.244,1.27,15.967
		c-3.326,4.904-10.342,6.666-15.629,4.012c-5.486-2.48-8.383-9.284-6.466-14.979C40.45,94.224,44.092,90.897,48.364,90.005
		L48.364,90.005z"/>
	<path d="M128.583,90.017c5.586-1.404,11.892,1.623,14.194,6.917c1.973,4.259,1.314,9.628-1.748,13.21
		c-3.253,3.968-9.059,5.551-13.869,3.725c-4.506-1.544-7.832-5.902-8.17-10.651C118.331,97.233,122.694,91.249,128.583,90.017
		L128.583,90.017z"/>
	<path d="M14.434,104.628c5.772-1.597,12.368,1.895,14.168,7.628c1.986,5.412-0.698,11.974-5.907,14.433
		c-4.146,2.091-9.506,1.496-13.019-1.57c-3.534-2.94-5.057-8.045-3.673-12.433C7.157,108.773,10.458,105.577,14.434,104.628
		L14.434,104.628z"/>
	<path d="M161.949,104.68c5.642-1.765,12.238,1.443,14.307,6.973c2.159,5.092,0.096,11.505-4.619,14.384
		c-3.907,2.533-9.293,2.438-13.118-0.203c-4.189-2.763-6.149-8.374-4.658-13.153C154.941,108.847,158.116,105.729,161.949,104.68
		L161.949,104.68z"/>
	<path d="M72.597,113.341c3.898-0.629,8.097,0.624,10.863,3.481c2.958,2.85,4.233,7.239,3.417,11.246
		c-1.023,5.701-6.492,10.186-12.299,10.004c-6.171,0.16-11.869-4.975-12.36-11.123C61.348,120.583,66.257,114.216,72.597,113.341
		L72.597,113.341z"/>
	<path d="M105.578,113.391c3.907-0.719,8.153,0.447,10.993,3.266c4.397,4.047,5.056,11.371,1.535,16.177
		c-3.157,4.614-9.563,6.487-14.736,4.423c-5.121-1.912-8.564-7.467-7.888-12.91C95.941,119,100.273,114.276,105.578,113.391
		L105.578,113.391z"/>
	<path d="M58.763,147.655c6.054-1.2,12.485,3.166,13.596,9.233c1.318,5.612-2.151,11.809-7.633,13.591
		c-4.649,1.688-10.269,0.131-13.296-3.799c-2.94-3.656-3.382-9.076-1.054-13.153C52.098,150.44,55.277,148.22,58.763,147.655
		L58.763,147.655z"/>
	<path d="M119.463,147.638c5.92-1.427,12.473,2.494,13.956,8.409c1.539,5.255-1.105,11.349-6.054,13.729
		c-4.116,2.118-9.458,1.545-12.992-1.465c-3.734-3.019-5.23-8.443-3.617-12.962C112.039,151.485,115.474,148.445,119.463,147.638
		L119.463,147.638z"/>
</g>
</svg>
