<?xml version="1.0" encoding="utf-8"?>
<!-- Generator: Adobe Illustrator 18.1.0, SVG Export Plug-In . SVG Version: 6.00 Build 0)  -->
<!DOCTYPE svg PUBLIC "-//W3C//DTD SVG 1.1//EN" "http://www.w3.org/Graphics/SVG/1.1/DTD/svg11.dtd">
<svg version="1.1" id="Layer_1" xmlns="http://www.w3.org/2000/svg" xmlns:xlink="http://www.w3.org/1999/xlink" x="0px" y="0px"
	 viewBox="130 130 240 240" enable-background="new 130 130 240 240" xml:space="preserve">
<g id="rTBTO1_1_">
	<path id="Circle" fill="#FF8949" d="M250,130c66.3,0,120,53.7,120,120s-53.7,120-120,120s-120-53.7-120-120S183.7,130,250,130z"/>
	<g id="S_x26_CO">
		<g>
			<path fill="#FFFFFF" d="M191,229.3h0.8c2.1,10.1,12,14.6,22.4,14.6c12.1,0,25.3-6.7,25.3-21.8c0-13.5-9.7-19.9-27.2-24.6
				c-14-3.8-17.6-6.8-17.6-13.4c0-5.4,5.1-9.3,11.1-9.3c8,0,15.4,5.6,15.7,17.1h14.3v-24.5h-12.1c0.1,4.3,0.2,8.6,0.2,12.9h-0.6
				c-1.6-9.2-10.3-14.1-20.1-14.1c-11.8,0-23.4,6.9-23.4,20.5c0,15.6,12.8,20.2,26.2,23.5c12.6,3.5,18.2,7,18.2,15.2
				c0,7.1-5.9,10.8-12.6,10.8c-8.4,0-17.9-5.8-18-18.4H179v25h12L191,229.3z M276.1,244.5c7.6,0,16.4-2.5,23.5-6.9
				c6.4,4.4,12.6,6.7,17.4,6.7c7.5,0,15.2-3.9,15.2-14.6v-9.1h-5.7v6.7c0,4.6-3.6,6.7-7.3,6.7c-2.6,0-6.1-1.5-9.6-3.8
				c6.2-6,11-13.7,13.1-23.6h9.5V196h-30.7v10.6h11.7c-0.3,7.6-3.5,14.6-8.8,19.8c-8.1-6.4-16.2-15.8-21.7-25.2
				c10.4-6.2,21.5-11.3,21.5-22.3c0-8.8-7.9-12.9-16.4-12.9c-11.6,0-23.5,6.8-23.5,19.2c0,5.3,1.7,11.3,4.5,17.1
				c-9.5,5.4-16.8,11.8-16.8,22.8C252,237.5,262.2,244.5,276.1,244.5z M286.8,172.2c4.2,0,7.7,2.7,7.7,7.7c0,7-6,11.5-14.3,16.3
				c-2.2-4.4-3.5-8.6-3.5-12.1C276.8,176,281.9,172.2,286.8,172.2z M272.4,208.6c6,9.8,14.1,19.1,22.2,25.2
				c-4.6,2.7-9.7,4.2-14.3,4.2c-8.1,0-14.2-4.2-14.2-15.1C266,216.8,268.6,212.3,272.4,208.6z M212.4,323.2
				c-14.3,0-26.3-10.4-26.3-27.9c0-17.6,11.4-26.7,22.6-26.7c10.6,0,19.4,5.9,19.9,16.3h12.8v-26.4h-11.8l0.3,13.4h-0.8
				c-2.9-9.2-11.3-14.3-22.9-14.3c-16.3,0-34.9,13.2-34.9,39.8c0,22.8,15,38.4,41.4,38.4c13.5,0,24.5-6.6,29.5-16.5l-9.1-8.1
				C228.6,318.9,220.8,323.2,212.4,323.2z M293.5,257.6c-22.7,0-39.2,17-39.2,39.2c0,22.5,16.3,39,39.2,39c22.7,0,39.3-16.4,39.3-39
				S316.6,257.6,293.5,257.6z M293.5,325.4c-15.3,0-22.5-8.6-22.5-28.6c0-21.7,6.8-28.3,22.5-28.3c16.3,0,22.5,8.5,22.5,28.3
				C316,318.5,309.6,325.4,293.5,325.4z"/>
		</g>
	</g>
</g>
</svg>
