<?xml version="1.0" encoding="utf-8"?>
<!-- Generator: Adobe Illustrator 18.0.0, SVG Export Plug-In . SVG Version: 6.00 Build 0)  -->
<!DOCTYPE svg PUBLIC "-//W3C//DTD SVG 1.1//EN" "http://www.w3.org/Graphics/SVG/1.1/DTD/svg11.dtd">
<svg version="1.1" id="Layer_1" xmlns="http://www.w3.org/2000/svg" xmlns:xlink="http://www.w3.org/1999/xlink" x="0px" y="0px"
	 viewBox="0 0 1024 1024" enable-background="new 0 0 1024 1024" xml:space="preserve">
<g id="rTBTO1_1_">
	<path id="Circle" fill-rule="evenodd" clip-rule="evenodd" fill="#FF8949" d="M512.005,0.01
		C794.772,0.01,1024,229.238,1024,512.005S794.772,1024,512.005,1024S0.01,794.772,0.01,512.005S229.238,0.01,512.005,0.01z"/>
	<g id="S_x26_CO">
		<g>
			<path fill="#FFFFFF" d="M260.223,423.867h3.574c8.936,42.893,51.382,62.105,95.615,62.105
				c51.829,0,108.125-28.595,108.125-92.934c0-57.637-41.552-84.892-116.168-104.998c-59.871-16.085-75.062-29.042-75.062-57.19
				c0-23.234,21.893-39.765,47.361-39.765c33.957,0,65.68,23.68,67.02,72.828H451.9V159.362h-51.829
				c0.447,18.319,0.894,36.638,0.894,54.956h-2.681C391.582,175,354.498,154,312.499,154c-50.488,0-99.636,29.489-99.636,87.573
				c0,66.573,54.51,86.232,111.7,100.083c53.616,14.744,77.743,29.936,77.743,64.786c0,30.382-25.021,46.02-53.616,46.02
				c-35.744,0-76.403-24.574-76.849-78.637h-62.105v106.785h51.382L260.223,423.867z M623.492,488.653
				c32.616,0,70.147-10.723,100.083-29.489c27.255,18.766,53.616,28.595,74.169,28.595c32.17,0,64.786-16.532,64.786-62.105v-38.871
				h-24.127v28.595c0,19.659-15.191,28.595-31.276,28.595c-11.17,0-25.914-6.255-41.105-16.085
				c26.361-25.467,46.914-58.531,55.85-100.53h40.659v-45.127H731.617v45.127h50.042c-1.34,32.616-14.744,62.105-37.531,84.445
				c-34.404-27.255-69.254-67.467-92.487-107.679c44.233-26.361,91.594-48.254,91.594-95.168c0-37.531-33.51-54.956-70.148-54.956
				c-49.595,0-100.083,29.042-100.083,81.764c0,22.787,7.149,48.254,19.212,72.828c-40.659,23.234-71.488,50.488-71.488,97.402
				C520.728,458.717,564.067,488.653,623.492,488.653z M669.065,179.914c17.872,0,33.063,11.617,33.063,33.063
				c0,29.936-25.468,49.148-61.212,69.701c-9.383-18.766-14.744-36.638-14.744-51.829
				C626.172,196.446,648.066,179.914,669.065,179.914z M607.407,335.401c25.468,41.999,60.318,81.318,94.721,107.679
				c-19.659,11.617-41.552,17.872-61.212,17.872c-34.404,0-60.765-17.872-60.765-64.339
				C580.152,370.251,591.322,351.039,607.407,335.401z M351.592,824.228c-61.212,0-112.147-44.233-112.147-118.849
				c0-75.062,48.701-113.934,96.509-113.934c45.127,0,82.658,25.021,84.892,69.701h54.51V548.552h-50.488l1.34,57.19h-3.574
				c-12.51-39.318-48.254-61.211-97.849-61.211C255.084,544.531,176,600.828,176,714.315c0,97.402,63.892,163.976,176.486,163.976
				c57.637,0,104.551-28.148,125.997-70.594l-38.872-34.404C420.846,805.909,387.336,824.228,351.592,824.228z M697.439,544.531
				c-96.956,0-167.103,72.381-167.103,167.103c0,96.062,69.701,166.209,167.103,166.209c96.955,0,167.55-70.147,167.55-166.209
				C864.989,615.572,796.182,544.531,697.439,544.531z M697.439,833.61c-65.233,0-96.062-36.638-96.062-121.976
				c0-92.487,29.042-120.636,96.062-120.636c69.701,0,96.062,36.191,96.062,120.636C793.501,804.122,766.247,833.61,697.439,833.61z
				"/>
		</g>
	</g>
</g>
<g>
</g>
<g>
</g>
<g>
</g>
<g>
</g>
<g>
</g>
<g>
</g>
</svg>
