<?xml version="1.0" encoding="utf-8"?>
<!-- Generator: Adobe Illustrator 18.0.0, SVG Export Plug-In . SVG Version: 6.00 Build 0)  -->
<!DOCTYPE svg PUBLIC "-//W3C//DTD SVG 1.1//EN" "http://www.w3.org/Graphics/SVG/1.1/DTD/svg11.dtd">
<svg version="1.1" id="Logo" xmlns="http://www.w3.org/2000/svg" xmlns:xlink="http://www.w3.org/1999/xlink" x="0px" y="0px"
	 viewBox="0 0 494.352 38.187" enable-background="new 0 0 494.352 38.187" xml:space="preserve">
<g>
	<path d="M179.255,38.187c-12.587,0-20.747-9.066-20.747-18.507v-1.173c0-9.602,8.16-18.508,20.747-18.508
		c12.641,0,20.801,8.906,20.801,18.508v1.173C200.056,29.121,191.895,38.187,179.255,38.187z M193.335,18.613
		c0-6.879-5.014-13.014-14.08-13.014c-9.066,0-14.027,6.135-14.027,13.014v0.854c0,6.881,4.961,13.12,14.027,13.12
		c9.066,0,14.08-6.239,14.08-13.12V18.613z"/>
	<path d="M37.121,36.801l-4.693-8.8H11.574l-4.534,8.8H0L19.2,1.28h5.547l19.521,35.52H37.121z M21.814,8.214l-7.733,14.934h15.733
		L21.814,8.214z"/>
	<path d="M74.561,38.187c-12.747,0-18.667-6.933-18.667-16.16V1.28h6.613v20.853c0,6.561,4.32,10.453,12.533,10.453
		c8.428,0,11.894-3.893,11.894-10.453V1.28h6.667v20.747C93.601,30.827,87.947,38.187,74.561,38.187z"/>
	<path d="M130.722,6.827v29.974h-6.667V6.827h-15.52V1.28h37.707v5.547H130.722z"/>
	<path d="M259.47,36.801V8.693l-1.761,3.094l-14.88,25.014h-3.254l-14.72-25.014l-1.76-3.094v28.107h-6.507V1.28h9.227
		l14.026,24.374l1.653,2.986l1.654-2.986L257.016,1.28h9.121v35.52H259.47z"/>
	<path d="M316.537,36.801l-4.693-8.8H290.99l-4.533,8.8h-7.04l19.2-35.52h5.547l19.52,35.52H316.537z M301.23,8.214l-7.733,14.934
		h15.733L301.23,8.214z"/>
	<path d="M350.563,6.827v29.974h-6.666V6.827h-15.521V1.28h37.707v5.547H350.563z"/>
	<path d="M399.471,6.827v29.974h-6.666V6.827h-15.52V1.28h37.707v5.547H399.471z"/>
	<path d="M431.417,36.801V4.641c2.667,0,3.733-1.441,3.733-3.36h2.827v35.52H431.417z"/>
	<path d="M490.191,11.307c-3.2-2.934-7.894-5.707-14.24-5.707c-9.493,0-14.827,6.508-14.827,13.281v0.693
		c0,6.72,5.387,13.013,15.307,13.013c5.921,0,10.827-2.826,13.921-5.706l4,4.213c-3.894,3.84-10.507,7.094-18.347,7.094
		c-13.44,0-21.601-8.747-21.601-18.348v-1.173C454.404,9.066,463.31,0,476.324,0c7.52,0,14.347,3.146,18.027,7.094L490.191,11.307z"
		/>
	<path d="M183.645,12.358c1.202,0.775,1.539,2.386,0.759,3.595l-6.08,9.418c-0.78,1.21-2.388,1.561-3.588,0.785l0,0
		c-1.2-0.776-1.541-2.384-0.759-3.594l6.08-9.418C180.839,11.936,182.445,11.584,183.645,12.358L183.645,12.358z"/>
</g>
<g>
</g>
<g>
</g>
<g>
</g>
<g>
</g>
<g>
</g>
<g>
</g>
</svg>
