<?xml version="1.0" encoding="utf-8"?>
<!-- Generator: Adobe Illustrator 18.0.0, SVG Export Plug-In . SVG Version: 6.00 Build 0)  -->
<!DOCTYPE svg PUBLIC "-//W3C//DTD SVG 1.1//EN" "http://www.w3.org/Graphics/SVG/1.1/DTD/svg11.dtd">
<svg version="1.1" id="Layer_1" xmlns="http://www.w3.org/2000/svg" xmlns:xlink="http://www.w3.org/1999/xlink" x="0px" y="0px"
	 viewBox="0 0 321 54" enable-background="new 0 0 321 54" xml:space="preserve">
<g>
	<path d="M0,53.3h22.5v-7.1H8.1v-9.7h14.1v-7.1H8.1v-9.1h14.4v-7.1H0V53.3z"/>
	<path d="M35.5,53.3h9l9.3-15.4l9.7,15.4h9.2L59,32.4l12.5-19.2h-9.1l-8.1,13.1l-8.2-13.1h-9.2l12.6,19L35.5,53.3z"/>
	<path d="M86.9,13.2v40.1H95V39.5h4.9c5.9,0,8.6-1,11.3-3.2c2.5-2.1,4.2-6.2,4.2-10.1s-1.6-7.9-4.6-10.2c-2.3-1.8-5-2.8-11.8-2.8
		L86.9,13.2L86.9,13.2z M95,20.3h4.4c2,0,3.8,0.2,5.5,1c1.6,0.8,2.8,2.4,2.8,5s-1.2,4.3-2.7,5.1c-1.6,0.9-3.4,1-5.3,1H95V20.3z"/>
	<path d="M179.2,40.8c-0.1,7.7,4.7,13.2,13.8,13.2c9.4,0,13.4-6,13.4-12.5c0-5.7-3.4-8.6-9.5-11.3c-6.8-2.8-8.9-3.6-8.9-6.6
		c0-2.7,2.3-4.5,4.9-4.5c4,0,4.7,3.1,5,4.9h8c-0.3-8.9-7.4-11.7-12.7-11.7c-6.5,0-13.3,4.2-13.3,11.9c0,7.6,7,10.1,10,11.2
		c5.6,2.2,8.5,3.1,8.5,6.5c0,2.8-2.4,5.3-5.5,5.3c-1.7,0-5.4-1-5.6-6.4L179.2,40.8L179.2,40.8z"/>
	<path d="M217.9,13.2v24.6c0,5.4,0.5,8.8,4.2,12.3c3,3.1,7.6,3.8,10.5,3.8c4.4,0,7.9-1.5,10.3-3.8c3.1-2.8,4.2-6.4,4.2-12.3V13.2
		H239v24.6c0,2.2,0,4.3-1.1,6.2c-0.9,1.6-2.7,2.9-5.4,2.9c-2.7,0-4.4-1.3-5.4-3c-1.1-2-1.1-4.1-1.1-6.1V13.2H217.9z"/>
	<path d="M276.2,36.1c5.5-0.9,8.3-6.1,8.3-11.3c0-8.7-5.6-12.3-13.7-12.3h-10.8v40.8h8V36.8h0.1l9.9,16.5h9.6L276.2,36.1z
		 M268.1,18.9h1.1c4.2,0,7.4,1,7.4,6c0,5-3.1,6.3-7.5,6.3h-1V18.9z"/>
	<path d="M298.5,53.3H321v-7.1h-14.4v-9.7h14.1v-7.1h-14.1v-9.1H321v-7.1h-22.5V53.3z"/>
	<path d="M127.8,20.9c0,10.6,8.6,20.1,20.7,20.1c12.1,0,20.9-9.3,20.9-20.5S160.5,0,148.5,0C137.5,0,127.8,8.2,127.8,20.9
		L127.8,20.9L127.8,20.9z M135.8,20.5c0-6.9,4.9-13.5,12.8-13.5c8.1,0,12.8,6.9,12.8,13.6c0,6.5-4.7,13.5-12.7,13.5
		C140.9,34,135.8,27.7,135.8,20.5L135.8,20.5z"/>
</g>
</svg>
