<?xml version="1.0" encoding="utf-8"?>
<!-- Generator: Adobe Illustrator 18.0.0, SVG Export Plug-In . SVG Version: 6.00 Build 0)  -->
<!DOCTYPE svg PUBLIC "-//W3C//DTD SVG 1.1//EN" "http://www.w3.org/Graphics/SVG/1.1/DTD/svg11.dtd">
<svg version="1.1" id="Layer_1" xmlns="http://www.w3.org/2000/svg" xmlns:xlink="http://www.w3.org/1999/xlink" x="0px" y="0px"
	 viewBox="0 0 250 250" enable-background="new 0 0 250 250" xml:space="preserve">
<path fill="#010202" d="M177.385,89.705l-25.617,71.911h13.641l25.623-71.911H177.385 M125.346,0.002L98.45,75.408l18.282,0.006
	c13.17,0,18.569,10.316,14.627,22.017l-26.741,74.978h-26.91l29.422-82.501H93.275l-29.419,82.501H36.714L97.084,3.131
	C41.488,15.814,0,65.559,0,124.997c0,58.514,40.206,107.629,94.497,121.245L155.49,74.988h44.173
	c9.136,0,20.357,6.068,15.661,20.181c-4.703,14.11-21.664,61.075-24.801,70.026c-3.128,8.959-10.698,10.758-16.697,10.758H146.67
	l-26.338,73.949c1.551,0.057,3.105,0.096,4.668,0.096c69.035,0,125-55.964,125-125.001C250,56.077,194.222,0.189,125.346,0.002z"/>
</svg>
