<?xml version="1.0" encoding="utf-8"?>
<!-- Generator: Adobe Illustrator 18.0.0, SVG Export Plug-In . SVG Version: 6.00 Build 0)  -->
<!DOCTYPE svg PUBLIC "-//W3C//DTD SVG 1.1//EN" "http://www.w3.org/Graphics/SVG/1.1/DTD/svg11.dtd">
<svg version="1.1" id="Layer_1" xmlns="http://www.w3.org/2000/svg" xmlns:xlink="http://www.w3.org/1999/xlink" x="0px" y="0px"
	 viewBox="0 0 92 51" enable-background="new 0 0 92 51" xml:space="preserve">
<g>
	<defs>
		<rect id="SVGID_1_" x="0.06" y="0.081" width="90.957" height="50.919"/>
	</defs>
	<clipPath id="SVGID_2_">
		<use xlink:href="#SVGID_1_"  overflow="visible"/>
	</clipPath>
	<path clip-path="url(#SVGID_2_)" d="M50.92,25.541C50.92,39.602,39.521,51,25.46,51C11.398,51,0,39.602,0,25.541
		c0-14.062,11.398-25.46,25.46-25.46C39.521,0.081,50.92,11.479,50.92,25.541"/>
</g>
<path fill="#FFFFFF" d="M4.754,30.785h1.803v-5.246h3.314v-1.32H6.557v-3.476h4.135v-1.319H4.754V30.785 M14.312,22.417
	c-0.772,0-1.416,0.113-2.205,0.354v1.223c0.628-0.177,1.16-0.258,1.722-0.258c0.966,0,1.352,0.387,1.352,1.32v0.853
	c0,0-1.368,0.031-2.012,0.097c-1.512,0.16-2.284,0.981-2.284,2.461c0,1.466,0.869,2.447,2.236,2.447
	c0.548,0,1.063-0.144,2.173-0.644l0.144,0.515h1.465v-5.472c0-1.239-0.145-1.818-0.58-2.252
	C15.921,22.642,15.181,22.417,14.312,22.417z M15.181,29.289c-0.386,0.177-0.756,0.306-1.126,0.306
	c-0.934,0-1.416-0.436-1.416-1.305c0-0.707,0.385-1.158,1.174-1.27c0.386-0.065,1.368-0.097,1.368-0.097V29.289z M19.06,30.785
	h1.722v-8.239H19.06V30.785z M19.929,19.295c-0.693,0-1.063,0.37-1.063,1.061c0,0.693,0.354,1.047,1.046,1.047
	c0.692,0,1.063-0.37,1.063-1.062C20.975,19.648,20.62,19.295,19.929,19.295z M24.579,23.318l-0.144-0.772H22.97v8.239h1.721v-6.372
	c0.258-0.307,0.869-0.483,1.321-0.483c0.611,0,0.9,0.112,1.335,0.353v-1.512c-0.305-0.209-0.595-0.354-1.078-0.354
	C25.642,22.417,24.934,22.867,24.579,23.318z M31.146,21.564c0-0.998,0.304-1.336,1.27-1.336c0.258,0,0.692,0.032,0.95,0.064v-1.158
	c-0.37-0.08-1.062-0.145-1.512-0.145c-1.643,0-2.431,0.837-2.431,2.591v0.966l-0.998,0.16v0.982h0.998v7.097h1.723v-7.097h1.689
	v-1.142h-1.689V21.564z M36.327,22.417c-0.772,0-1.417,0.113-2.205,0.354v1.223c0.628-0.177,1.158-0.258,1.722-0.258
	c0.966,0,1.351,0.387,1.351,1.32v0.853c0,0-1.368,0.031-2.011,0.097c-1.513,0.16-2.286,0.981-2.286,2.461
	c0,1.466,0.87,2.447,2.238,2.447c0.547,0,1.062-0.144,2.173-0.644l0.144,0.515h1.464v-5.472c0-1.239-0.145-1.818-0.578-2.252
	C37.935,22.642,37.195,22.417,36.327,22.417z M37.195,29.289c-0.385,0.177-0.756,0.306-1.126,0.306
	c-0.933,0-1.416-0.436-1.416-1.305c0-0.707,0.386-1.158,1.174-1.27c0.387-0.065,1.368-0.097,1.368-0.097V29.289z M44.565,26.36
	l2.302-3.814h-1.448l-1.593,2.784l-1.609-2.784h-1.931l2.397,3.91l-2.704,4.329h1.561l1.867-3.202l1.9,3.202h1.946L44.565,26.36z"/>
<polyline points="63.089,30.785 63.089,20.711 59.709,30.785 58.599,30.785 55.203,20.728 55.203,30.785 54.173,30.785 
	54.173,19.424 55.814,19.424 59.178,29.385 62.429,19.424 64.135,19.424 64.135,30.785 63.089,30.785 "/>
<polygon fill="none" stroke="#000000" stroke-width="0.444" points="63.089,30.785 63.089,20.711 59.709,30.785 58.599,30.785 
	55.203,20.728 55.203,30.785 54.173,30.785 54.173,19.424 55.814,19.424 59.178,29.385 62.429,19.424 64.135,19.424 64.135,30.785 
	"/>
<path d="M72.196,26.907h-4.861c0,2.204,0.886,3.122,2.752,3.122c0.467,0,1.224-0.081,1.867-0.209v0.853
	c-0.691,0.144-1.384,0.241-2.092,0.241c-2.607,0-3.556-1.561-3.556-4.039c0-2.945,1.288-4.329,3.154-4.329
	c2.06,0,2.784,1.512,2.784,3.348C72.244,26.134,72.196,26.907,72.196,26.907 M69.396,23.431c-1.143,0-1.963,1.013-2.044,2.59h3.862
	c0-0.112,0.015-0.321,0.015-0.434C71.229,24.219,70.602,23.431,69.396,23.431z"/>
<path fill="none" stroke="#000000" stroke-width="0.444" d="M72.196,26.907h-4.861c0,2.204,0.886,3.122,2.752,3.122
	c0.467,0,1.224-0.081,1.867-0.209v0.853c-0.691,0.144-1.384,0.241-2.092,0.241c-2.607,0-3.556-1.561-3.556-4.039
	c0-2.945,1.288-4.329,3.154-4.329c2.06,0,2.784,1.512,2.784,3.348C72.244,26.134,72.196,26.907,72.196,26.907z M69.396,23.431
	c-1.143,0-1.963,1.013-2.044,2.59h3.862c0-0.112,0.015-0.321,0.015-0.434C71.229,24.219,70.602,23.431,69.396,23.431z"/>
<path d="M79.212,30.785L79.1,30.366c-0.419,0.275-1.24,0.548-1.852,0.548c-2.72,0-3.572-1.979-3.572-4.071
	c0-2.109,0.966-4.297,3.604-4.297c0.58,0,1.24,0.209,1.771,0.498v-3.942h0.981v11.683H79.212 M79.051,24.026
	c-0.338-0.354-1.046-0.595-1.674-0.595c-1.674,0-2.688,1.287-2.688,3.363c0,1.931,0.79,3.235,2.72,3.235
	c0.499,0,1.143-0.177,1.642-0.434V24.026z"/>
<path fill="none" stroke="#000000" stroke-width="0.444" d="M79.212,30.785L79.1,30.366c-0.419,0.275-1.24,0.548-1.852,0.548
	c-2.72,0-3.572-1.979-3.572-4.071c0-2.109,0.966-4.297,3.604-4.297c0.58,0,1.24,0.209,1.771,0.498v-3.942h0.981v11.683H79.212z
	 M79.051,24.026c-0.338-0.354-1.046-0.595-1.674-0.595c-1.674,0-2.688,1.287-2.688,3.363c0,1.931,0.79,3.235,2.72,3.235
	c0.499,0,1.143-0.177,1.642-0.434V24.026z"/>
<path d="M83.009,21.354c-0.354,0-0.644-0.112-0.644-0.772s0.306-0.788,0.659-0.788c0.355,0,0.661,0.113,0.661,0.772
	C83.685,21.226,83.363,21.354,83.009,21.354 M82.526,22.674h0.981v8.111h-0.981V22.674z"/>
<path fill="none" stroke="#000000" stroke-width="0.444" d="M83.009,21.354c-0.354,0-0.644-0.112-0.644-0.772
	s0.306-0.788,0.659-0.788c0.355,0,0.661,0.113,0.661,0.772C83.685,21.226,83.363,21.354,83.009,21.354z M82.526,22.674h0.981v8.111
	h-0.981V22.674z"/>
<path d="M90.071,30.785l-0.177-0.579c-1.03,0.579-1.529,0.708-2.301,0.708c-1.287,0-2.285-0.772-2.285-2.301
	c0-1.497,0.804-2.35,2.091-2.479c0.645-0.064,2.414-0.16,2.414-0.16v-0.95c0-1.03-0.37-1.593-1.577-1.593
	c-0.466,0-1.206,0.112-1.657,0.273v-0.853c0.387-0.145,1.143-0.305,1.786-0.305c0.821,0,1.464,0.225,1.803,0.562
	c0.37,0.387,0.627,0.902,0.627,2.205v5.472H90.071 M89.813,26.81c0,0-1.56,0.065-1.995,0.128c-1.094,0.163-1.512,0.725-1.512,1.529
	c0,0.983,0.434,1.562,1.577,1.562c0.547,0,1.545-0.402,1.93-0.724V26.81z"/>
<g>
	<defs>
		<rect id="SVGID_3_" x="0.06" y="0.081" width="90.957" height="50.919"/>
	</defs>
	<clipPath id="SVGID_4_">
		<use xlink:href="#SVGID_3_"  overflow="visible"/>
	</clipPath>
	<path clip-path="url(#SVGID_4_)" fill="none" stroke="#000000" stroke-width="0.444" d="M90.071,30.785l-0.177-0.579
		c-1.03,0.579-1.529,0.708-2.301,0.708c-1.287,0-2.285-0.772-2.285-2.301c0-1.497,0.804-2.35,2.091-2.479
		c0.645-0.064,2.414-0.16,2.414-0.16v-0.95c0-1.03-0.37-1.593-1.577-1.593c-0.466,0-1.206,0.112-1.657,0.273v-0.853
		c0.387-0.145,1.143-0.305,1.786-0.305c0.821,0,1.464,0.225,1.803,0.562c0.37,0.387,0.627,0.902,0.627,2.205v5.472H90.071z
		 M89.813,26.81c0,0-1.56,0.065-1.995,0.128c-1.094,0.163-1.512,0.725-1.512,1.529c0,0.983,0.434,1.562,1.577,1.562
		c0.547,0,1.545-0.402,1.93-0.724V26.81z"/>
</g>
</svg>
