<?xml version="1.0" encoding="utf-8"?>
<!-- Generator: Adobe Illustrator 18.0.0, SVG Export Plug-In . SVG Version: 6.00 Build 0)  -->
<!DOCTYPE svg PUBLIC "-//W3C//DTD SVG 1.1//EN" "http://www.w3.org/Graphics/SVG/1.1/DTD/svg11.dtd">
<svg version="1.1" id="Layer_1" xmlns="http://www.w3.org/2000/svg" xmlns:xlink="http://www.w3.org/1999/xlink" x="0px" y="0px"
	 viewBox="0 0 950.63 283.465" enable-background="new 0 0 950.63 283.465" xml:space="preserve">
<rect x="0" y="0" width="950.63" height="283.464"/>
<path fill="#FFFFFF" d="M665.891,84.694c-29.579,0-54.578,25.304-54.578,55.263c0,34.076,23.156,58.789,55.028,58.789
	c30.075,0,54.536-26.362,54.536-58.789C720.877,109.489,696.206,84.694,665.891,84.694 M666.341,184.849
	c-25.444,0-34.674-26.537-34.674-44.348c0-16.196,9.3-41.862,34.224-41.862c23.916,0,34.667,24.163,34.667,41.318
	C700.558,162.276,688.812,184.849,666.341,184.849 M147.678,84.7c19.32,0,39.979,8.587,39.979,32.649
	c0,23.245-22.689,37.159-46.295,37.194c-0.076-3.854-0.141-7.838-0.188-11.838c17.857-1.369,27.444-10.037,27.444-24.344
	c0-12.307-9.98-20.917-24.286-20.917h-11.534c-0.023,35.826,0.702,87.333,2.129,100.119c-7.662-1.544-14.003-1.591-21.916,0
	c1.808-15.594,2.994-98.159-0.111-112.899c0,0,14.512,0.503,17.711,0.503C134.395,84.729,143.77,84.7,147.678,84.7 M332.743,85.52
	c-5.604,21.916-28.994,85.18-40.265,112.062c7.369-1.041,15.166-0.79,18.764-0.205c3.755-12.06,7.803-26.402,9.592-31.784
	c11.688-0.848,25.497-0.848,39.389,0c4.211,11.266,6.68,19.256,10.505,31.732c7.183-0.672,14.54-0.591,22.331,0.094
	c-11.171-26.847-37.152-96.054-41.306-111.916C346.103,86.187,338.885,86.187,332.743,85.52 M325.314,150.526
	c0,0,10.728-31.878,14.343-42.862c0,0,11.125,31.509,15.056,42.862C342.804,151.742,336.791,151.742,325.314,150.526
	 M232.027,183.334c11.774,0.515,39.909-1.152,39.909-1.152c0.093,12.102-0.714,15.704-0.714,15.704
	c-10.493-1.403-42.09-2.076-59.205,0c2.527-27.309,1.674-83.653,0.117-112.863c15.799,1.333,46.045,1.07,58.842,0v15.774
	c-10.961-1.035-28.426-2.082-38.393-1.761c0,0-0.398,26.146-0.094,32.819c17.811,1.27,30.883-0.836,36.498-1.245v15.745
	c0,0-20.665-2.035-36.439-0.818C232.027,156.059,232.027,171.653,232.027,183.334 M837.286,195.119
	c0.07,0.287,0.444,2.299,0.427,2.322c-4.896-0.748-12.301-0.877-16.968-0.129c-8.891-13.107-44.009-61.128-57.883-79.044
	c-0.503,26.215-0.819,65.872,0.796,78.939c-2.095,0.07-5.218-0.117-6.809-0.117c-4.738,0-6.832-0.234-11.072,0.351
	c2.322-13.558,2.859-97.06,0-111.776c6.738,0.141,12.289,0.234,14.078,0.1c1.58-0.1,2.656-0.251,2.656-0.251
	s37.762,50.647,57.473,77.103c0.211-9.996,1.111-60.293-0.783-77.349c2.655,0.38,5.937,1.322,9.218,1.275
	c2.995-0.059,6.241-0.778,9.194-1.299C834.94,106.553,833.964,179.175,837.286,195.119 M487.218,114.899
	c0,18.079-12.213,28.496-23.97,30.818c8.558,10.968,39.429,51.9,39.429,51.9c-7.797-1.164-19.237-0.965-24.958-0.299
	c-9.838-15.383-26.484-39.194-32.849-46.88c-0.11-4.416-0.163-7.809-0.245-12.148c19.138,0.398,23.185-12.33,23.185-21.355
	c0-12.014-10.914-18.296-21.688-18.296h-9.37c-0.818,21.46,0.714,74.208,1.661,98.738c-7.452-0.766-15.723-0.643-21.665,0
	c2.527-17.979,2.082-99.826,0-112.325c0,0,11.815,0.906,16.94,0.613c4.62-0.257,8.942-0.479,14.4-0.479
	C459.85,85.186,487.218,88.075,487.218,114.899 M566.713,133.575c12.312,7.85,21.712,15.173,21.712,31.89
	c0,24.145-18.898,32.708-35.077,32.708c-13.336,0-27.461-7.036-34.007-12.09c2.445-4.838,5.007-9.827,6.891-16.693
	c7.276,8.13,18.448,13.868,26.134,13.868c10.143,0,16.214-5.527,16.214-14.799c0.397-6.948-4.586-11.873-10.851-17.114
	c-4.557-3.79-16.12-11.26-18.875-13.5c-9.125-7.434-14.716-13.64-14.716-25.478c0-15.78,14.009-27.672,32.626-27.672
	c9.511,0,18.425,2.837,29.315,10.107c-2.667,4.048-6.398,10.272-8.335,16.009c-4.381-5.931-11.113-12.172-20.419-12.172
	c-8.809,0-14.284,5.112-14.284,13.301c0,2.685,1.942,5.732,5.932,9.312C552.927,124.679,558.413,128.498,566.713,133.575"/>
<g>
</g>
<g>
</g>
<g>
</g>
<g>
</g>
<g>
</g>
<g>
</g>
</svg>
